<svg width="112px" height="86px" viewBox="0 0 112 86">
    <g id="Page-1" stroke="none" stroke-width="1" fill="none" fill-rule="evenodd">
        <g id="Portfolio" transform="translate(-456.000000, -1172.000000)">
            <g id="Page-1" transform="translate(456.000000, 1172.000000)">
                <path d="M51.8863,72.4276 C47.5810219,76.0341527 42.3021147,78.5160384 36.5035354,79.4192518 C34.9078885,79.6677972 33.2728903,75.2358398 31.608,75.2358398 C30.2705061,75.2358398 28.9523034,79.713546 27.6582959,79.5519421 C12.0745949,77.6057498 0,64.2962061 0,48.1888 L0,0 L16.4895,0 L16.4895,20.4294 C20.9815,17.9757 26.1331,16.5808 31.608,16.5808 C41.4239,16.5808 50.2007,21.0649 56,28.0947 C61.7993,21.0649 70.5761,16.5808 80.392,16.5808 C100.445,16.5808 110.845,29.6178 111.931,46.0824 L112,79.7968 L95.5105,79.7968 L95.5105,75.9481 C91.0185,78.4018 85.8669,79.7968 80.392,79.7968 C72.6769,79.7968 65.6037,77.0266 60.1137,72.4276 L51.8863,72.4276 Z M31.608,31.6653 C40.7276,31.6653 48.1315,39.0692 48.1315,48.1888 C48.1315,57.3083 40.7276,64.7122 31.608,64.7122 C22.4885,64.7122 15.0845,57.3083 15.0845,48.1888 C15.0845,39.0692 22.4885,31.6653 31.608,31.6653 Z M80.392,31.6653 C89.5115,31.6653 96.9155,39.0692 96.9155,48.1888 C96.9155,57.3083 89.5115,64.7122 80.392,64.7122 C71.2724,64.7122 63.8685,57.3083 63.8685,48.1888 C63.8685,39.0692 71.2724,31.6653 80.392,31.6653 Z" id="Fill-1" fill="#1A82E1"></path>
                <path d="M93.7458,79.3171 C93.7276,82.6322 91.7143,84 89.2371,84 C87.2446,84 85.1404,83.2621 84.4875,82.8088 L85.45,80.7209 C85.45,80.7209 87.3543,81.7956 88.8284,81.6341 C89.7303,81.5353 90.7666,80.6923 90.7666,79.5502 C90.7666,79.4734 90.7627,79.3975 90.755,79.3229 C90.0567,79.9905 89.138,80.3961 88.132,80.3961 C85.9492,80.3961 84.1771,78.4864 84.1771,76.1342 C84.1771,73.782 85.9492,71.8723 88.132,71.8723 C89.1436,71.8723 90.0669,72.2824 90.7666,72.9567 L90.7666,71.9594 L93.7459,71.9418 L93.7459,79.3171 L93.7458,79.3171 Z M55.5758,77.5821 C55.9467,78.4071 56.776,78.9821 57.7385,78.9821 C58.5505,78.9821 59.2677,78.5729 59.6948,77.9495 L61.4161,79.6012 C60.5468,80.6693 59.2217,81.3521 57.7385,81.3521 C55.4548,81.3521 53.5056,79.8222 53.0575,77.6707 C53.0575,77.6707 52.8957,77.036 52.9386,76.2118 C53.0578,73.9245 54.9392,71.8723 57.3295,71.8723 C59.7198,71.8723 61.6604,73.7318 61.6604,76.0223 L61.6604,77.5821 L55.5758,77.5821 Z M35.3801,81.2084 L32.4007,81.2084 L32.4007,80.093 C31.8375,80.8525 30.8855,81.3521 29.8067,81.3521 C28.0785,81.3521 26.6755,80.07 26.6755,78.4909 C26.6755,76.9118 28.0787,75.6066 29.8067,75.6298 C31.19,75.6483 31.9665,75.8618 32.4007,76.214 L32.4007,75.3849 C32.0322,74.7354 31.3306,74.3992 30.0979,74.3992 C29.4132,74.3992 28.776,74.7473 28.2213,75.0247 L27.5989,72.8919 C27.6142,72.8674 29.1859,71.8723 30.8838,71.8723 C33.4187,71.8723 35.2914,72.8547 35.377,75.0247 L35.3801,81.2084 Z M46.5796,81.2084 L41.878418,81.2084 L43.6002,69.1921 L46.5796,69.1633 L46.5796,75.204 L49.1022,72.1668 L52.2825,72.1668 L49.4385,75.591 L52.6627,81.1755 L49.1973,81.1755 L47.3941,78.0524 L46.5796,79.0332 L46.5796,81.2084 Z M72.7786,81.2084 L69.7993,81.2084 L69.7993,72.1884 L72.7786,72.1668 L72.7786,81.2084 Z M14.5928,81.2084 L11.6135,81.2084 L11.6135,72.1884 L14.5928,72.1668 L14.5928,73.4314 C15.1547,72.4626 16.2032,71.8105 17.4028,71.8105 C18.448,71.8105 19.3786,72.3056 19.9724,73.0739 C20.5663,72.3056 21.4968,71.8105 22.5421,71.8105 C23.9835,71.8105 25.0098,72.555 25.4102,73.8335 L25.4764,73.8331 L25.4764,81.2084 L22.4971,81.2084 L22.4971,75.1959 C22.1596,74.8333 21.6782,74.6063 21.1442,74.6063 C20.6593,74.6063 20.3272,74.8201 20.0884,75.1257 L20.0884,81.2084 L17.1091,81.2084 L17.1091,75.1421 C16.8725,74.8278 16.53,74.6063 16.0049,74.6063 C15.4388,74.6063 14.9319,74.8613 14.5928,75.2626 L14.5928,81.2084 Z M39.8074,81.2084 L36.828,81.2084 L36.828,72.1884 L39.8074,72.1668 L39.8074,73.7471 C40.4667,72.6839 41.4684,71.9229 42.6905,71.8105 L42.6905,75.1022 C42.634,75.0988 42.5771,75.0971 42.5198,75.0971 C41.2223,75.0971 40.1291,75.9789 39.8074,77.1755 L39.8074,81.2084 Z M77.4509,81.2084 L74.4716,81.2084 L74.4716,72.1884 L77.4509,72.1668 L77.4509,73.2489 C78.0339,72.3816 79.0242,71.8105 80.1468,71.8105 C81.5882,71.8105 82.6145,72.555 83.0149,73.8335 L83.0811,73.8331 L83.0811,81.2084 L80.1018,81.2084 L80.1018,75.1959 C79.7643,74.8333 79.2829,74.6063 78.7489,74.6063 C78.0733,74.6063 77.6943,75.0214 77.4509,75.5216 L77.4509,81.2084 Z M65.5994,81.2084 C64.3248,81.2082 63.5777,80.2357 63.5671,79.4177 L63.5671,74.5288 L62.5646,74.5288 L62.5504,72.1668 L63.5671,72.1668 L63.5671,69.8361 L66.5464,69.8136 L66.5464,72.1668 L68.4812,72.1668 L68.4812,74.5288 L66.5464,74.5288 L66.5464,78.2746 C66.8469,78.4545 67.1901,78.5408 67.5532,78.5408 C67.882,78.5408 68.1944,78.4701 68.4737,78.3213 L68.4737,80.5264 C67.9768,80.9534 67.5907,81.1882 66.8097,81.2063 L65.5994,81.2084 Z M30.959,77.2759 C31.6153,77.2759 32.0682,77.2949 32.2636,77.5209 C32.3923,77.6699 32.2869,78.2992 32.2003,78.4909 C31.9381,79.0716 31.4788,79.4754 30.8842,79.4754 C30.2895,79.4754 29.8067,78.9996 29.8067,78.4135 C29.8067,77.8273 30.3643,77.2759 30.959,77.2759 Z M88.9829,74.3566 C89.9674,74.3566 90.7666,75.1531 90.7666,76.1342 C90.7666,77.1153 89.9674,77.9118 88.9829,77.9118 C87.9985,77.9118 87.1993,77.1153 87.1993,76.1342 C87.1993,75.1531 87.9985,74.3566 88.9829,74.3566 Z M58.8426,75.9686 L58.8753,75.8066 C58.8753,74.9349 58.1676,74.2272 57.2959,74.2272 C56.4242,74.2272 55.7165,74.9349 55.7165,75.8066 L55.7492,75.9686 L58.8426,75.9686 Z M72.7786,71.2631 L69.7993,71.2631 L69.7993,68.8905 L72.7786,68.8848 L72.7786,71.2631 Z" id="Stroke-2" stroke="#FFFFFF" stroke-width="3.5" stroke-linecap="round" stroke-linejoin="round"></path>
                <path d="M93.7458,79.3171 C93.7276,82.6322 91.7143,84 89.2371,84 C87.2446,84 85.1404,83.2621 84.4875,82.8088 L85.45,80.7209 C85.45,80.7209 87.3543,81.7956 88.8284,81.6341 C89.7303,81.5353 90.7666,80.6923 90.7666,79.5502 C90.7666,79.4734 90.7627,79.3975 90.755,79.3229 C90.0567,79.9905 89.138,80.3961 88.132,80.3961 C85.9492,80.3961 84.1771,78.4864 84.1771,76.1342 C84.1771,73.782 85.9492,71.8723 88.132,71.8723 C89.1436,71.8723 90.0669,72.2824 90.7666,72.9567 L90.7666,71.9594 L93.7459,71.9418 L93.7459,79.3171 L93.7458,79.3171 Z M55.5758,77.5821 C55.9467,78.4071 56.776,78.9821 57.7385,78.9821 C58.5505,78.9821 59.2677,78.5729 59.6948,77.9495 L61.4161,79.6012 C60.5468,80.6693 59.2217,81.3521 57.7385,81.3521 C55.4548,81.3521 53.5056,79.8222 53.0575,77.6707 C53.0575,77.6707 52.8957,77.036 52.9386,76.2118 C53.0578,73.9245 54.9392,71.8723 57.3295,71.8723 C59.7198,71.8723 61.6604,73.7318 61.6604,76.0223 L61.6604,77.5821 L55.5758,77.5821 Z M35.3801,81.2084 L32.4007,81.2084 L32.4007,80.093 C31.8375,80.8525 30.8855,81.3521 29.8067,81.3521 C28.0785,81.3521 26.6755,80.07 26.6755,78.4909 C26.6755,76.9118 28.0787,75.6066 29.8067,75.6298 C31.19,75.6483 31.9665,75.8618 32.4007,76.214 L32.4007,75.3849 C32.0322,74.7354 31.3306,74.3992 30.0979,74.3992 C29.4132,74.3992 28.776,74.7473 28.2213,75.0247 L27.5989,72.8919 C27.6142,72.8674 29.1859,71.8723 30.8838,71.8723 C33.4187,71.8723 35.2914,72.8547 35.377,75.0247 L35.3801,75.0247 L35.3801,81.2084 Z M46.5796,81.2084 L43.6002,81.2084 L43.6002,69.1921 L46.5796,69.1633 L46.5796,75.204 L49.1022,72.1668 L52.2825,72.1668 L49.4385,75.591 L52.6627,81.1755 L49.1973,81.1755 L47.3941,78.0524 L46.5796,79.0332 L46.5796,81.2084 Z M72.7786,81.2084 L69.7993,81.2084 L69.7993,72.1884 L72.7786,72.1668 L72.7786,81.2084 Z M14.5928,81.2084 L11.6135,81.2084 L11.6135,72.1884 L14.5928,72.1668 L14.5928,73.4314 C15.1547,72.4626 16.2032,71.8105 17.4028,71.8105 C18.448,71.8105 19.3786,72.3056 19.9724,73.0739 C20.5663,72.3056 21.4968,71.8105 22.5421,71.8105 C23.9835,71.8105 25.0098,72.555 25.4102,73.8335 L25.4764,73.8331 L25.4764,81.2084 L22.4971,81.2084 L22.4971,75.1959 C22.1596,74.8333 21.6782,74.6063 21.1442,74.6063 C20.6593,74.6063 20.3272,74.8201 20.0884,75.1257 L20.0884,81.2084 L17.1091,81.2084 L17.1091,75.1421 C16.8725,74.8278 16.53,74.6063 16.0049,74.6063 C15.4388,74.6063 14.9319,74.8613 14.5928,75.2626 L14.5928,81.2084 Z M39.8074,81.2084 L36.828,81.2084 L36.828,72.1884 L39.8074,72.1668 L39.8074,73.7471 C40.4667,72.6839 41.4684,71.9229 42.6905,71.8105 L42.6905,75.1022 C42.634,75.0988 42.5771,75.0971 42.5198,75.0971 C41.2223,75.0971 40.1291,75.9789 39.8074,77.1755 L39.8074,81.2084 Z M77.4509,81.2084 L74.4716,81.2084 L74.4716,72.1884 L77.4509,72.1668 L77.4509,73.2489 C78.0339,72.3816 79.0242,71.8105 80.1468,71.8105 C81.5882,71.8105 82.6145,72.555 83.0149,73.8335 L83.0811,73.8331 L83.0811,81.2084 L80.1018,81.2084 L80.1018,75.1959 C79.7643,74.8333 79.2829,74.6063 78.7489,74.6063 C78.0733,74.6063 77.6943,75.0214 77.4509,75.5216 L77.4509,81.2084 Z M65.5994,81.2084 C64.3248,81.2082 63.5777,80.2357 63.5671,79.4177 L63.5671,74.5288 L62.5646,74.5288 L62.5504,72.1668 L63.5671,72.1668 L63.5671,69.8361 L66.5464,69.8136 L66.5464,72.1668 L68.4812,72.1668 L68.4812,74.5288 L66.5464,74.5288 L66.5464,78.2746 C66.8469,78.4545 67.1901,78.5408 67.5532,78.5408 C67.882,78.5408 68.1944,78.4701 68.4737,78.3213 L68.4737,80.5264 C67.9768,80.9534 67.5907,81.1882 66.8097,81.2063 L65.5994,81.2084 Z M30.959,77.2759 C31.6153,77.2759 32.0682,77.2949 32.2636,77.5209 C32.3923,77.6699 32.2869,78.2992 32.2003,78.4909 C31.9381,79.0716 31.4788,79.4754 30.8842,79.4754 C30.2895,79.4754 29.8067,78.9996 29.8067,78.4135 C29.8067,77.8273 30.3643,77.2759 30.959,77.2759 Z M88.9829,74.3566 C89.9674,74.3566 90.7666,75.1531 90.7666,76.1342 C90.7666,77.1153 89.9674,77.9118 88.9829,77.9118 C87.9985,77.9118 87.1993,77.1153 87.1993,76.1342 C87.1993,75.1531 87.9985,74.3566 88.9829,74.3566 Z M58.8426,75.9686 L58.8753,75.8066 C58.8753,74.9349 58.1676,74.2272 57.2959,74.2272 C56.4242,74.2272 55.7165,74.9349 55.7165,75.8066 L55.7492,75.9686 L58.8426,75.9686 Z M72.7786,71.2631 L69.7993,71.2631 L69.7993,68.8905 L72.7786,68.8848 L72.7786,71.2631 Z" id="Fill-3" fill="#1A82E1"></path>
            </g>
        </g>
    </g>
</svg>
