
<svg width="64px" height="55px" viewBox="0 0 64 55">
    <g id="Page-1" stroke="none" stroke-width="1" fill="none" fill-rule="evenodd">
        <g id="About" transform="translate(-192.000000, -553.000000)">
            <g id="Group-5" transform="translate(192.000000, 553.000000)">
                <path d="M35.7606759,51.7211354 C44.0393053,51.7211354 50.7606759,52.4150274 50.7606759,53.2695878 C50.7606759,54.1241481 44.0393053,54.8180401 35.7606759,54.8180401 C27.4820465,54.8180401 20.7606759,54.1241481 20.7606759,53.2695878 C20.7606759,52.4150274 27.4820465,51.7211354 35.7606759,51.7211354 Z" id="Fill-11" fill="#DFDFDF"></path>
                <g id="Page-1">
                    <path d="M55.517394,23.8127624 L52.696058,24.5585349 L51.6258174,21.4266504 C50.4694201,21.4992477 49.3333019,21.3365337 48.2750609,20.9721071 L46.4108096,23.7093262 L43.8885026,22.2415403 L45.3471688,19.2684099 C44.5075598,18.5283972 43.8046257,17.6209906 43.2964444,16.579789 L40.0446842,17.1966863 L39.2990317,14.3753502 L42.4309163,13.3051097 C42.358319,12.1487123 42.521033,11.0125942 42.8854596,9.95435315 L40.1482404,8.09010186 L41.6159063,5.56779481 L44.5891568,7.02646106 C45.3291695,6.186852 46.2365761,5.4839179 47.2776577,4.97573663 L46.6607604,1.72397647 L49.4820964,0.978323946 L50.552457,4.11020853 C51.7087344,4.0376112 52.8449725,4.20032521 53.9032135,4.56475178 L55.7673448,1.82753265 L58.2896519,3.29531856 L56.8309856,6.26844899 C57.6707147,7.00846172 58.3735288,7.91586828 58.88183,8.95694991 L62.1334702,8.34005265 L62.8792427,11.1615087 L59.7473581,12.2317492 C59.8199555,13.3880266 59.6571215,14.5242647 59.2928149,15.5825057 L62.029914,17.446637 L60.5622481,19.9689441 L57.5891177,18.5102778 C56.849105,19.3500069 55.9416984,20.052821 54.9004968,20.5611223 L55.517394,23.8127624 Z M49.5358545,6.89158603 C52.7793349,6.03433762 56.1086122,7.97166622 56.9658607,11.2151467 C57.8231091,14.4586272 55.8859004,17.7879045 52.64242,18.6451529 C49.3989395,19.5024013 46.0695422,17.5651927 45.2122938,14.3217122 C44.3550454,11.0782317 46.292374,7.74895443 49.5358545,6.89158603 Z" id="Fill-1" fill="#FFFFFF"></path>
                    <path d="M55.517394,23.8127624 L52.696058,24.5585349 L51.6258174,21.4266504 C50.4694201,21.4992477 49.3333019,21.3365337 48.2750609,20.9721071 L46.4108096,23.7093262 L43.8885026,22.2415403 L45.3471688,19.2684099 C44.5075598,18.5283972 43.8046257,17.6209906 43.2964444,16.579789 L40.0446842,17.1966863 L39.2990317,14.3753502 L42.4309163,13.3051097 C42.358319,12.1487123 42.521033,11.0125942 42.8854596,9.95435315 L40.1482404,8.09010186 L41.6159063,5.56779481 L44.5891568,7.02646106 C45.3291695,6.186852 46.2365761,5.4839179 47.2776577,4.97573663 L46.6607604,1.72397647 L49.4820964,0.978323946 L50.552457,4.11020853 C51.7087344,4.0376112 52.8449725,4.20032521 53.9032135,4.56475178 L55.7673448,1.82753265 L58.2896519,3.29531856 L56.8309856,6.26844899 C57.6707147,7.00846172 58.3735288,7.91586828 58.88183,8.95694991 L62.1334702,8.34005265 L62.8792427,11.1615087 L59.7473581,12.2317492 C59.8199555,13.3880266 59.6571215,14.5242647 59.2928149,15.5825057 L62.029914,17.446637 L60.5622481,19.9689441 L57.5891177,18.5102778 C56.849105,19.3500069 55.9416984,20.052821 54.9004968,20.5611223 L55.517394,23.8127624 Z M49.5358545,6.89158603 C52.7793349,6.03433762 56.1086122,7.97166622 56.9658607,11.2151467 C57.8231091,14.4586272 55.8859004,17.7879045 52.64242,18.6451529 C49.3989395,19.5024013 46.0695422,17.5651927 45.2122938,14.3217122 C44.3550454,11.0782317 46.292374,7.74895443 49.5358545,6.89158603 Z" id="Stroke-2" stroke="#4C5966" stroke-linecap="round" stroke-linejoin="round"></path>
                    <path d="M16.2465613,6.93478443 L16.6102679,3.77602084 L24.6316123,3.77602084 L24.9954388,6.93478443 C26.5780605,7.34480932 28.0735654,7.97190621 29.4484747,8.78259634 L31.9418629,6.80398925 L37.6139338,12.4760602 L35.6353267,14.9694483 C36.4458969,16.3442377 37.0731138,17.8398626 37.4831386,19.4224842 L40.6419022,19.7863108 L40.6419022,27.8076552 L37.4831386,28.1713618 C37.0731138,29.7539835 36.4460169,31.2496084 35.6353267,32.6243977 L37.6139338,35.1179058 L31.9418629,40.7899768 L29.4484747,38.8113697 C28.0736854,39.6219398 26.5780605,40.2491567 24.9954388,40.6591816 L24.6316123,43.8179452 L16.6102679,43.8179452 L16.2465613,40.6591816 C14.6639396,40.2491567 13.1683147,39.6219398 11.7935254,38.8113697 L9.30001727,40.7899768 L3.6279463,35.1179058 L5.60655338,32.6243977 C4.79598325,31.2496084 4.16876637,29.7541035 3.75874148,28.1713618 L0.599977889,27.8076552 L0.599977889,19.7863108 L3.75874148,19.4224842 C4.16876637,17.8398626 4.79598325,16.3443577 5.60655338,14.9694483 L3.6279463,12.4760602 L9.30001727,6.80398925 L11.7935254,8.78259634 C13.1683147,7.97202621 14.6638196,7.34480932 16.2465613,6.93478443 Z" id="Fill-3" fill="#FFFFFF"></path>
                    <path d="M16.2465613,6.93478443 L16.6102679,3.77602084 L24.6316123,3.77602084 L24.9954388,6.93478443 C26.5780605,7.34480932 28.0735654,7.97190621 29.4484747,8.78259634 L31.9418629,6.80398925 L37.6139338,12.4760602 L35.6353267,14.9694483 C36.4458969,16.3442377 37.0731138,17.8398626 37.4831386,19.4224842 L40.6419022,19.7863108 L40.6419022,27.8076552 L37.4831386,28.1713618 C37.0731138,29.7539835 36.4460169,31.2496084 35.6353267,32.6243977 L37.6139338,35.1179058 L31.9418629,40.7899768 L29.4484747,38.8113697 C28.0736854,39.6219398 26.5780605,40.2491567 24.9954388,40.6591816 L24.6316123,43.8179452 L16.6102679,43.8179452 L16.2465613,40.6591816 C14.6639396,40.2491567 13.1683147,39.6219398 11.7935254,38.8113697 L9.30001727,40.7899768 L3.6279463,35.1179058 L5.60655338,32.6243977 C4.79598325,31.2496084 4.16876637,29.7541035 3.75874148,28.1713618 L0.599977889,27.8076552 L0.599977889,19.7863108 L3.75874148,19.4224842 C4.16876637,17.8398626 4.79598325,16.3443577 5.60655338,14.9694483 L3.6279463,12.4760602 L9.30001727,6.80398925 L11.7935254,8.78259634 C13.1683147,7.97202621 14.6638196,7.34480932 16.2465613,6.93478443 Z" id="Stroke-4" stroke="#4C5966" stroke-linecap="round" stroke-linejoin="round"></path>
                    <path d="M20.6210001,11.2407057 C27.5509847,11.2407057 33.1772173,16.8669384 33.1772173,23.796923 C33.1772173,30.7269076 27.5509847,36.3531403 20.6210001,36.3531403 C13.6910154,36.3531403 8.06478279,30.7269076 8.06478279,23.796923 C8.06478279,16.8669384 13.6910154,11.2407057 20.6210001,11.2407057 Z" id="Fill-5" fill="#FFFFFF"></path>
                    <path d="M20.6210001,11.2407057 C27.5509847,11.2407057 33.1772173,16.8669384 33.1772173,23.796923 C33.1772173,30.7269076 27.5509847,36.3531403 20.6210001,36.3531403 C13.6910154,36.3531403 8.06478279,30.7269076 8.06478279,23.796923 C8.06478279,16.8669384 13.6910154,11.2407057 20.6210001,11.2407057 Z" id="Stroke-6" stroke="#4C5966" stroke-linecap="round" stroke-linejoin="round"></path>
                </g>
            </g>
        </g>
    </g>
</svg>
