<svg width="48px" height="42px" viewBox="0 0 48 42">
    <g id="Page-1" stroke="none" stroke-width="1" fill="none" fill-rule="evenodd">
        <g id="About" transform="translate(-771.000000, -566.000000)">
            <g id="Group-9" transform="translate(771.000000, 566.000000)">
                <path d="M26.7606759,38.7211354 C35.0393053,38.7211354 41.7606759,39.4150274 41.7606759,40.2695878 C41.7606759,41.1241481 35.0393053,41.8180401 26.7606759,41.8180401 C18.4820465,41.8180401 11.7606759,41.1241481 11.7606759,40.2695878 C11.7606759,39.4150274 18.4820465,38.7211354 26.7606759,38.7211354 Z" id="Fill-11" fill="#DFDFDF"></path>
                <g id="Page-1">
                    <path d="M0.5,16.5382 C1.509,15.0474 6.8027,11.4168 8.5269,11.0659 C10.2512,10.7151 21.2187,17.3159 23.7995,15.7534 C26.7182,13.9864 31.5348,4.9677 34.3576,3.8307 C37.1804,2.6937 40.2387,9.4865 42.7361,8.9314 C45.2335,8.3763 45.14,3.3104 47.342,0.5" id="Stroke-1" stroke="#4C5966" stroke-linecap="round" stroke-linejoin="round"></path>
                    <path d="M8.7932,8.5191 C10.146,8.5191 11.2444,9.6174 11.2444,10.9703 C11.2444,12.3231 10.146,13.4215 8.7932,13.4215 C7.4403,13.4215 6.342,12.3231 6.342,10.9703 C6.342,9.6174 7.4403,8.5191 8.7932,8.5191 Z" id="Fill-2" fill="#FFFFFF"></path>
                    <path d="M8.7932,8.5191 C10.146,8.5191 11.2444,9.6174 11.2444,10.9703 C11.2444,12.3231 10.146,13.4215 8.7932,13.4215 C7.4403,13.4215 6.342,12.3231 6.342,10.9703 C6.342,9.6174 7.4403,8.5191 8.7932,8.5191 Z" id="Stroke-3" stroke="#4C5966" stroke-linecap="round" stroke-linejoin="round"></path>
                    <path d="M22.7932,13.5191 C24.146,13.5191 25.2444,14.6174 25.2444,15.9703 C25.2444,17.3231 24.146,18.4215 22.7932,18.4215 C21.4403,18.4215 20.342,17.3231 20.342,15.9703 C20.342,14.6174 21.4403,13.5191 22.7932,13.5191 Z" id="Fill-4" fill="#FFFFFF"></path>
                    <path d="M22.7932,13.5191 C24.146,13.5191 25.2444,14.6174 25.2444,15.9703 C25.2444,17.3231 24.146,18.4215 22.7932,18.4215 C21.4403,18.4215 20.342,17.3231 20.342,15.9703 C20.342,14.6174 21.4403,13.5191 22.7932,13.5191 Z" id="Stroke-5" stroke="#4C5966" stroke-linecap="round" stroke-linejoin="round"></path>
                    <path d="M34.7932,1.5191 C36.146,1.5191 37.2444,2.6174 37.2444,3.9703 C37.2444,5.3231 36.146,6.4215 34.7932,6.4215 C33.4403,6.4215 32.342,5.3231 32.342,3.9703 C32.342,2.6174 33.4403,1.5191 34.7932,1.5191 Z" id="Fill-6" fill="#FFFFFF"></path>
                    <path d="M34.7932,1.5191 C36.146,1.5191 37.2444,2.6174 37.2444,3.9703 C37.2444,5.3231 36.146,6.4215 34.7932,6.4215 C33.4403,6.4215 32.342,5.3231 32.342,3.9703 C32.342,2.6174 33.4403,1.5191 34.7932,1.5191 Z" id="Stroke-7" stroke="#4C5966" stroke-linecap="round" stroke-linejoin="round"></path>
                    <path d="M0.5,20.5382 C4.31054688,18.4189453 6.06828047,20.8891 7.79248047,20.5382 C9.51678047,20.1874 14.8513024,27.0656189 23.921,26.1088867 C27.0732422,25.7763672 35.2221219,23.1555547 38.0449219,22.0185547 C40.8677219,20.8815547 43.2053727,22.3569766 47.0844727,24.8759766" id="Stroke-8" stroke="#CCD0D4" stroke-linecap="round" stroke-linejoin="round"></path>
                    <g id="Group-6" transform="translate(6.000000, 19.000000)">
                        <path d="M1.86213333,0.346066667 C2.764,0.346066667 3.49626667,1.07826667 3.49626667,1.9802 C3.49626667,2.88206667 2.764,3.61433333 1.86213333,3.61433333 C0.9602,3.61433333 0.228,2.88206667 0.228,1.9802 C0.228,1.07826667 0.9602,0.346066667 1.86213333,0.346066667 Z" id="Fill-9" fill="#FFFFFF"></path>
                        <path d="M1.86213333,0.346066667 C2.764,0.346066667 3.49626667,1.07826667 3.49626667,1.9802 C3.49626667,2.88206667 2.764,3.61433333 1.86213333,3.61433333 C0.9602,3.61433333 0.228,2.88206667 0.228,1.9802 C0.228,1.07826667 0.9602,0.346066667 1.86213333,0.346066667 Z" id="Stroke-10" stroke="#CCD0D4" stroke-linecap="round" stroke-linejoin="round"></path>
                    </g>
                    <g id="Group-7" transform="translate(22.000000, 24.000000)">
                        <path d="M1.86213333,0.346066667 C2.764,0.346066667 3.49626667,1.07826667 3.49626667,1.9802 C3.49626667,2.88206667 2.764,3.61433333 1.86213333,3.61433333 C0.9602,3.61433333 0.228,2.88206667 0.228,1.9802 C0.228,1.07826667 0.9602,0.346066667 1.86213333,0.346066667 Z" id="Fill-11" fill="#FFFFFF"></path>
                        <path d="M1.86213333,0.346066667 C2.764,0.346066667 3.49626667,1.07826667 3.49626667,1.9802 C3.49626667,2.88206667 2.764,3.61433333 1.86213333,3.61433333 C0.9602,3.61433333 0.228,2.88206667 0.228,1.9802 C0.228,1.07826667 0.9602,0.346066667 1.86213333,0.346066667 Z" id="Stroke-12" stroke="#CCD0D4" stroke-linecap="round" stroke-linejoin="round"></path>
                    </g>
                    <g id="Group-8" transform="translate(36.000000, 20.000000)">
                        <path d="M1.86213333,0.346066667 C2.764,0.346066667 3.49626667,1.07826667 3.49626667,1.9802 C3.49626667,2.88206667 2.764,3.61433333 1.86213333,3.61433333 C0.9602,3.61433333 0.228,2.88206667 0.228,1.9802 C0.228,1.07826667 0.9602,0.346066667 1.86213333,0.346066667 Z" id="Fill-13" fill="#FFFFFF"></path>
                        <path d="M1.86213333,0.346066667 C2.764,0.346066667 3.49626667,1.07826667 3.49626667,1.9802 C3.49626667,2.88206667 2.764,3.61433333 1.86213333,3.61433333 C0.9602,3.61433333 0.228,2.88206667 0.228,1.9802 C0.228,1.07826667 0.9602,0.346066667 1.86213333,0.346066667 Z" id="Stroke-14" stroke="#CCD0D4" stroke-linecap="round" stroke-linejoin="round"></path>
                    </g>
                </g>
            </g>
        </g>
    </g>
</svg>
