
<svg width="21px" height="49px" viewBox="0 0 21 49">
    <g id="Page-1" stroke="none" stroke-width="1" fill="none" fill-rule="evenodd">
        <g id="About" transform="translate(-755.000000, -688.000000)">
            <g id="Group-2" transform="translate(756.000000, 689.000000)">
                <path d="M18.7083398,23.7605994 C18.7083398,25.8058258 18.0433171,27.5669665 16.7132515,29.0440745 C15.383186,30.5211824 13.6554635,31.4335001 11.5300322,31.7810549 L11.5300322,35.2900042 C11.5300322,35.4771491 11.4698794,35.6308729 11.3495719,35.7511804 C11.2292645,35.8714878 11.0755406,35.9316406 10.8883957,35.9316406 L8.181492,35.9316406 C8.0077146,35.9316406 7.85733256,35.868146 7.73034138,35.7411548 C7.6033502,35.6141636 7.53985556,35.4637816 7.53985556,35.2900042 L7.53985556,31.7810549 C6.65760104,31.6607475 5.80543617,31.4535544 4.98333537,31.1594696 C4.16123457,30.8653848 3.4828445,30.5679625 2.94814479,30.2671939 C2.41344508,29.9664253 1.91885527,29.6456103 1.46436052,29.3047393 C1.00986577,28.9638682 0.699076229,28.7132315 0.531982571,28.5528216 C0.364888912,28.3924117 0.247925106,28.272106 0.181087643,28.1919011 C-0.0461597328,27.9111837 -0.0595270249,27.6371542 0.140985365,27.3698044 L2.20625266,24.6629007 C2.2998251,24.5292257 2.45354896,24.449022 2.66742885,24.422287 C2.86794124,24.395552 3.02834874,24.4557048 3.14865618,24.6027472 C4.69928512,25.9662313 6.32341112,26.801687 8.06118517,27.1492419 C8.5557824,27.2561818 9.05037221,27.309651 9.54496943,27.309651 C10.6277363,27.309651 11.5801559,27.0222542 12.4022567,26.447452 C13.2243575,25.8726498 13.6354017,25.057245 13.6354017,24.0012131 C13.6354017,23.6269233 13.535147,23.27269 13.3346347,22.9385027 C13.1341223,22.6043154 12.9102201,22.3236023 12.6629215,22.0963549 C12.4156229,21.8691075 12.0246296,21.6184708 11.4899299,21.3444372 C10.9552302,21.0704036 10.5141095,20.8565269 10.1665547,20.7028008 C9.81899993,20.5490746 9.28430824,20.3318561 8.56246364,20.0511387 C8.04113142,19.8372589 7.63008719,19.6701677 7.3293186,19.5498603 C7.02855002,19.4295528 6.61750579,19.2524362 6.09617357,19.0185051 C5.57484136,18.784574 5.15711348,18.5773809 4.8429774,18.3969198 C4.52884132,18.2164586 4.15121532,17.9791892 3.71008806,17.6851044 C3.2689608,17.3910195 2.91138574,17.1069646 2.63735214,16.832931 C2.36331854,16.5588974 2.07257993,16.2313987 1.7651276,15.8504252 C1.45767527,15.4694516 1.22040584,15.0818002 1.05331218,14.6874591 C0.88621852,14.2931181 0.745861952,13.8486556 0.632238264,13.3540584 C0.518614577,12.8594612 0.461803585,12.3381368 0.461803585,11.7900696 C0.461803585,9.94535559 1.1168009,8.32791324 2.42681518,6.937694 C3.73682946,5.54747477 5.44115921,4.65186619 7.53985556,4.25084141 L7.53985556,0.64163644 C7.53985556,0.467859035 7.6033502,0.317476998 7.73034138,0.190485818 C7.85733256,0.0634946377 8.0077146,0 8.181492,0 L10.8883957,0 C11.0755406,0 11.2292645,0.0601528147 11.3495719,0.180460249 C11.4698794,0.300767683 11.5300322,0.454491542 11.5300322,0.64163644 L11.5300322,4.17063686 C12.2919793,4.25084181 13.0305221,4.40456567 13.745683,4.63181305 C14.4608439,4.85906042 15.0423211,5.08296257 15.4901321,5.3035262 C15.9379431,5.52408983 16.3623546,5.77472655 16.7633794,6.0554439 C17.1644042,6.33616125 17.4250664,6.52998698 17.5453738,6.63692692 C17.6656812,6.74386686 17.7659359,6.83743791 17.8461409,6.91764287 C18.0733882,7.15825773 18.1068065,7.41223628 17.9463966,7.67958614 L16.3222543,10.6070524 C16.2153144,10.8075648 16.0615905,10.9145031 15.8610781,10.9278706 C15.6739332,10.9679731 15.4934748,10.9211876 15.3196974,10.7875126 C15.2795949,10.7474102 15.182682,10.6672064 15.0289559,10.546899 C14.8752297,10.4265915 14.6145675,10.2494749 14.2469615,10.0155438 C13.8793554,9.78161268 13.4883621,9.56773601 13.0739699,9.37390736 C12.6595776,9.18007872 12.1616459,9.00630392 11.58016,8.85257775 C10.9986741,8.69885159 10.4272223,8.62198966 9.86578765,8.62198966 C8.59587585,8.62198966 7.55991071,8.90938644 6.75786115,9.48418862 C5.95581159,10.0589908 5.55479283,10.8008755 5.55479283,11.709865 C5.55479283,12.0574198 5.61160382,12.3782348 5.7252275,12.6723197 C5.83885119,12.9664045 6.03601875,13.2437758 6.3167361,13.5044419 C6.59745344,13.765108 6.86145746,13.9856684 7.10875608,14.1661295 C7.35605469,14.3465907 7.73033887,14.5537837 8.23161985,14.7877148 C8.73290082,15.0216459 9.13726141,15.2021044 9.44471374,15.3290956 C9.75216607,15.4560867 10.2200213,15.639887 10.8482935,15.8805019 C11.5567706,16.1478517 12.0981459,16.3583866 12.4724357,16.5121128 C12.8467255,16.6658389 13.3546826,16.8997665 13.9963222,17.2139026 C14.6379619,17.5280387 15.1425772,17.8120936 15.5101832,18.066076 C15.8777893,18.3200584 16.2921753,18.6542407 16.7533538,19.0686329 C17.2145323,19.4830252 17.5687656,19.9074367 17.8160642,20.3418803 C18.0633628,20.7763238 18.2738976,21.2876227 18.447675,21.8757924 C18.6214524,22.463962 18.7083398,23.0922248 18.7083398,23.7605994 Z" id="" stroke="#4C5966"></path>
                <path d="M8.98169901,44 C13.3868675,44 16.963398,44.693892 16.963398,45.5484524 C16.963398,46.4030127 13.3868675,47.0969047 8.98169901,47.0969047 C4.57653049,47.0969047 1,46.4030127 1,45.5484524 C1,44.693892 4.57653049,44 8.98169901,44 Z" id="Fill-11" fill="#DFDFDF"></path>
            </g>
        </g>
    </g>
</svg>
