
<svg width="42px" height="54px" viewBox="0 0 42 54">
    <g id="Page-1" stroke="none" stroke-width="1" fill="none" fill-rule="evenodd">
        <g id="About" transform="translate(-395.000000, -555.000000)">
            <g id="Group-4" transform="translate(391.000000, 552.000000)">
                <path d="M26.3601048,53.196879 C30.7652733,53.196879 34.3418038,53.890771 34.3418038,54.7453314 C34.3418038,55.5998918 30.7652733,56.2937838 26.3601048,56.2937838 C21.9549363,56.2937838 18.3784058,55.5998918 18.3784058,54.7453314 C18.3784058,53.890771 21.9549363,53.196879 26.3601048,53.196879 Z" id="Fill-11" fill="#DFDFDF"></path>
                <g id="Page-1" transform="translate(26.162951, 26.162951) rotate(-315.000000) translate(-26.162951, -26.162951) translate(17.162951, -1.837049)">
                    <polygon id="Fill-1" fill="#FFFFFF" points="12.3841465 4.20159688 1.33519272 4.20159688 1.25331305 45.5939257 12.63705 45.5939257"></polygon>
                    <polygon id="Stroke-2" stroke="#4C5966" stroke-linecap="round" stroke-linejoin="round" points="12.3841465 4.20159688 1.33519272 4.20159688 1.25331305 45.5939257 12.63705 45.5939257"></polygon>
                    <polyline id="Stroke-3" stroke="#4C5966" stroke-linecap="round" stroke-linejoin="round" points="1.25331305 45.5939257 12.63705 45.5939257 6.94511996 55.2484625 1.25331305 45.5939257"></polyline>
                    <polyline id="Stroke-4" stroke="#4C5966" stroke-linecap="round" stroke-linejoin="round" points="5.82724696 53.3521786 8.06311608 53.3521786 6.94511996 55.2484625 5.82724696 53.3521786"></polyline>
                    <path d="M3.64850893,25.8739763 L3.54877579,8.14548826" id="Stroke-5" stroke="#4C5966" stroke-linecap="round" stroke-linejoin="round"></path>
                    <path d="M3.74664141,4.20159688 L10.458312,4.20159688 C10.458312,4.20159688 11.5007079,0.615636631 6.93009842,0.615636631 C2.35961208,0.615636631 3.74664141,4.20159688 3.74664141,4.20159688 Z" id="Stroke-6" stroke="#4C5966" stroke-linecap="round" stroke-linejoin="round"></path>
                    <path d="M12.63705,8.95689734 C12.63705,8.95689734 15.1014434,8.21382393 15.7687935,10.0755091 C16.4361436,11.9371943 17.057321,24.642703 17.057321,24.642703 L15.2357753,24.642703 L12.63705,8.95689734 Z" id="Stroke-7" stroke="#4C5966" stroke-linecap="round" stroke-linejoin="round"></path>
                    <path d="M0.709336526,44.7080246 L0.615636631,25.0764806 C0.615636631,25.0764806 3.43451363,24.15044 6.83024216,24.15044 C10.2259707,24.15044 13.2746033,24.9029942 13.2746033,24.9029942 L13.2746033,44.3572349 C13.2746033,44.3572349 12.8510453,46.3941302 6.73974358,46.3941302 C0.628318745,46.3941302 0.709336526,44.7080246 0.709336526,44.7080246" id="Fill-8" fill="#FFFFFF"></path>
                    <path d="M0.709336526,44.7080246 L0.615636631,25.0764806 C0.615636631,25.0764806 3.43451363,24.15044 6.83024216,24.15044 C10.2259707,24.15044 13.2746033,24.9029942 13.2746033,24.9029942 L13.2746033,44.3572349 C13.2746033,44.3572349 12.8510453,46.3941302 6.73974358,46.3941302 C0.628318745,46.3941302 0.709336526,44.7080246 0.709336526,44.7080246" id="Stroke-9" stroke="#4C5966" stroke-linecap="round" stroke-linejoin="round"></path>
                    <path d="M3.64850893,45.162857 L3.55801034,29.0771337" id="Stroke-10" stroke="#4C5966" stroke-linecap="round" stroke-linejoin="round" stroke-dasharray="0.0001,2"></path>
                </g>
            </g>
        </g>
    </g>
</svg>
