
<svg width="41px" height="52px" viewBox="0 0 41 52">
    <g id="Page-1" stroke="none" stroke-width="1" fill="none" fill-rule="evenodd">
        <g id="About" transform="translate(-235.000000, -677.000000)">
            <g id="Page-1" transform="translate(235.000000, 677.000000)">
                <path d="M14.8567524,36.8083344 L14.8544982,36.8084596 C14.8556253,36.8421461 14.8561262,36.8760831 14.8561262,36.91002 C14.8561262,38.6306618 13.4592005,40.0277127 11.7385588,40.0277127 C10.017917,40.0277127 8.62099131,38.6306618 8.62099131,36.91002 C8.62099131,36.8977476 8.62099131,36.88535 8.62124177,36.8730776 L8.62099131,36.8730776 C8.62099131,36.8730776 8.81071273,20.864472 8.81071273,16.0922583 C8.81071273,7.55629726 15.7407415,0.626143293 24.2767025,0.626143293 C32.8126636,0.626143293 39.7428175,7.55629726 39.7428175,16.0922583 C39.7428175,24.6282194 39.7424418,36.5502381 39.7424418,36.5502381 L39.7361804,36.5502381 C39.7405634,36.6176111 39.7428175,36.6856103 39.7428175,36.7541104 C39.7428175,38.4747521 38.3458918,39.8716778 36.6252501,39.8716778 C34.9046083,39.8716778 33.5076826,38.4747521 33.5076826,36.7541104 C33.5076826,36.7074001 33.5086845,36.6610655 33.5106881,36.6148561 L33.5043014,36.6149813 C33.4314184,34.9588323 32.0637962,33.6366681 30.3899899,33.6366681 C28.6942687,33.6366681 27.3129966,34.9933954 27.2734243,36.6795993 L27.2715459,36.6795993 C27.272172,36.7043946 27.2725477,36.7291899 27.2725477,36.7541104 C27.2725477,38.4747521 25.8754968,39.8716778 24.154855,39.8716778 C22.4342133,39.8716778 21.0372876,38.4747521 21.0372876,36.7541104 L21.0374128,36.7442173 L21.0122418,36.7444678 C20.9448688,35.1044732 19.5920236,33.7937049 17.9354989,33.7937049 C16.2575601,33.7937049 14.8913155,35.1386607 14.8567524,36.8083344 Z" id="Fill-1" fill="#FFFFFF"></path>
                <path d="M14.8567524,36.8083344 L14.8544982,36.8084596 C14.8556253,36.8421461 14.8561262,36.8760831 14.8561262,36.91002 C14.8561262,38.6306618 13.4592005,40.0277127 11.7385588,40.0277127 C10.017917,40.0277127 8.62099131,38.6306618 8.62099131,36.91002 C8.62099131,36.8977476 8.62099131,36.88535 8.62124177,36.8730776 L8.62099131,36.8730776 C8.62099131,36.8730776 8.81071273,20.864472 8.81071273,16.0922583 C8.81071273,7.55629726 15.7407415,0.626143293 24.2767025,0.626143293 C32.8126636,0.626143293 39.7428175,7.55629726 39.7428175,16.0922583 C39.7428175,24.6282194 39.7424418,36.5502381 39.7424418,36.5502381 L39.7361804,36.5502381 C39.7405634,36.6176111 39.7428175,36.6856103 39.7428175,36.7541104 C39.7428175,38.4747521 38.3458918,39.8716778 36.6252501,39.8716778 C34.9046083,39.8716778 33.5076826,38.4747521 33.5076826,36.7541104 C33.5076826,36.7074001 33.5086845,36.6610655 33.5106881,36.6148561 L33.5043014,36.6149813 C33.4314184,34.9588323 32.0637962,33.6366681 30.3899899,33.6366681 C28.6942687,33.6366681 27.3129966,34.9933954 27.2734243,36.6795993 L27.2715459,36.6795993 C27.272172,36.7043946 27.2725477,36.7291899 27.2725477,36.7541104 C27.2725477,38.4747521 25.8754968,39.8716778 24.154855,39.8716778 C22.4342133,39.8716778 21.0372876,38.4747521 21.0372876,36.7541104 L21.0374128,36.7442173 L21.0122418,36.7444678 C20.9448688,35.1044732 19.5920236,33.7937049 17.9354989,33.7937049 C16.2575601,33.7937049 14.8913155,35.1386607 14.8567524,36.8083344 Z" id="Stroke-2" stroke="#4C5966" stroke-linecap="round" stroke-linejoin="round"></path>
                <polygon id="Fill-3" fill="#FFFFFF" points="13.4590753 38.4022447 16.3784058 38.5728062 4.89105572 20.3268654 0.863451601 22.8626205 12.3508017 41.1085613"></polygon>
                <polygon id="Stroke-4" stroke="#4C5966" stroke-linecap="round" stroke-linejoin="round" points="13.4590753 38.4022447 16.3784058 38.5728062 4.89105572 20.3268654 0.863451601 22.8626205 12.3508017 41.1085613"></polygon>
                <polyline id="Stroke-5" stroke="#4C5966" stroke-linecap="round" stroke-linejoin="round" points="12.3508017 41.1085613 15.9247024 42.3186458 16.3784058 38.5728062"></polyline>
                <path d="M2.42805846,25.3477832 L6.45566258,22.8120281" id="Stroke-6" stroke="#4C5966" stroke-linecap="round" stroke-linejoin="round"></path>
                <path d="M18.6768526,9.31350579 C21.0240133,9.31350579 22.9296178,11.2191103 22.9296178,13.566271 C22.9296178,15.9134318 21.0240133,17.8190363 18.6768526,17.8190363 C16.3296918,17.8190363 14.4240873,15.9134318 14.4240873,13.566271 C14.4240873,11.2191103 16.3296918,9.31350579 18.6768526,9.31350579 Z" id="Fill-7" fill="#FFFFFF"></path>
                <path d="M18.6768526,9.31350579 C21.0240133,9.31350579 22.9296178,11.2191103 22.9296178,13.566271 C22.9296178,15.9134318 21.0240133,17.8190363 18.6768526,17.8190363 C16.3296918,17.8190363 14.4240873,15.9134318 14.4240873,13.566271 C14.4240873,11.2191103 16.3296918,9.31350579 18.6768526,9.31350579 Z" id="Stroke-8" stroke="#4C5966" stroke-linecap="round" stroke-linejoin="round"></path>
                <path d="M29.6869563,9.31350579 C32.034117,9.31350579 33.9397215,11.2191103 33.9397215,13.566271 C33.9397215,15.9134318 32.034117,17.8190363 29.6869563,17.8190363 C27.3397955,17.8190363 25.434191,15.9134318 25.434191,13.566271 C25.434191,11.2191103 27.3397955,9.31350579 29.6869563,9.31350579 Z" id="Fill-9" fill="#FFFFFF"></path>
                <path d="M29.6869563,9.31350579 C32.034117,9.31350579 33.9397215,11.2191103 33.9397215,13.566271 C33.9397215,15.9134318 32.034117,17.8190363 29.6869563,17.8190363 C27.3397955,17.8190363 25.434191,15.9134318 25.434191,13.566271 C25.434191,11.2191103 27.3397955,9.31350579 29.6869563,9.31350579 Z" id="Stroke-10" stroke="#4C5966" stroke-linecap="round" stroke-linejoin="round"></path>
                <path d="M24.3601048,48.196879 C28.7652733,48.196879 32.3418038,48.890771 32.3418038,49.7453314 C32.3418038,50.5998918 28.7652733,51.2937838 24.3601048,51.2937838 C19.9549363,51.2937838 16.3784058,50.5998918 16.3784058,49.7453314 C16.3784058,48.890771 19.9549363,48.196879 24.3601048,48.196879 Z" id="Fill-11" fill="#DFDFDF"></path>
            </g>
        </g>
    </g>
</svg>
