
<svg width="56px" height="58px" viewBox="0 0 56 58">
    <defs>
        <path d="M12.788392,15.7074487 C20.7070388,16.240674 28.7483075,11.6179303 36.9121981,1.83921761 L36.9121981,40.7874339 C29.0733014,31.6325246 21.0320327,27.0027171 12.788392,26.8980112 C10.2193729,24.2271657 12.8795763,15.7951958 12.788392,15.7074487 Z" id="path-1"></path>
        <path d="M5.43422985,23.3669262 L11.0419264,23.3669262 L11.0419264,23.3669262 C11.5942111,23.3669262 12.0419264,23.8146414 12.0419264,24.3669262 C12.0419264,24.448688 12.031899,24.5301412 12.0120689,24.6094618 L8.82988252,37.3382071 L8.82988252,37.3382071 C8.71859077,37.7833741 8.31860766,38.0956715 7.85974002,38.0956715 L5.43422985,38.0956715 L5.43422985,38.0956715 C4.8819451,38.0956715 4.43422985,37.6479562 4.43422985,37.0956715 L4.43422985,24.3669262 L4.43422985,24.3669262 C4.43422985,23.8146414 4.8819451,23.3669262 5.43422985,23.3669262 Z" id="path-2"></path>
        <rect id="path-3" x="0.402641499" y="17.2330558" width="6.59744161" height="7.83446191" rx="2"></rect>
        <rect id="path-4" x="4.90005818" y="13.1001912" width="6.59744161" height="7.83446191" rx="2"></rect>
        <rect id="path-5" x="2.80003324" y="14.5002078" width="11.200133" height="13.3001579" rx="2"></rect>
        <rect id="path-6" x="35.039966" y="0.500041556" width="5.56051602" height="40.9874007" rx="2"></rect>
    </defs>
    <g id="Page-1" stroke="none" stroke-width="1" fill="none" fill-rule="evenodd">
        <g id="About" transform="translate(-494.000000, -670.000000)">
            <g id="Group-11" transform="translate(486.000000, 664.000000)">
                <g id="Group" transform="translate(36.492386, 32.221009) rotate(-25.000000) translate(-36.492386, -32.221009) translate(6.492386, 11.221009)">
                    <path d="M51.315402,20.5113497 L59.5310045,20.5113497" id="Line-4" stroke="#CCD0D4" stroke-linecap="round"></path>
                    <path d="M45.8899602,34.1593268 L51.2002317,39.4695983" id="Line-5" stroke="#CCD0D4" stroke-linecap="round"></path>
                    <circle id="Oval-2" stroke="#4C5966" fill="#FFFFFF" cx="37.94263" cy="21.0676533" r="5.60006649"></circle>
                    <path d="M47.2339887,7.19161198 L51.9382256,2.48737514" id="Line-3" stroke="#CCD0D4" stroke-linecap="round"></path>
                    <g id="Rectangle-17">
                        <use fill="#FFFFFF" fill-rule="evenodd" xlink:href="#path-1"></use>
                        <path stroke="#4C5966" stroke-width="1" d="M13.1929604,16.2307074 C13.1768175,16.2970975 13.1531117,16.3943489 13.1169408,16.5427878 C12.9545888,17.2090522 12.839611,17.7074901 12.7183783,18.296373 C12.4681687,19.5117556 12.2920737,20.6626104 12.2124471,21.7401195 C12.0532737,23.8940599 12.3036318,25.5152933 13.0173631,26.4019549 C21.0338087,26.5812694 28.8332966,30.9444923 36.4121981,39.4545611 L36.4121981,3.19882049 C28.6041942,12.2069599 20.8646694,16.5681748 13.1929604,16.2307074 Z M12.2998428,15.931223 C12.3256725,15.9630484 12.3704206,15.9991404 12.4416942,16.0677272 L12.2998428,15.931223 Z M12.2484893,15.8818052 C12.2567002,15.8473055 12.2595668,15.8341287 12.2682534,15.796 C12.2808415,15.7407459 12.2889137,15.7020722 12.2923972,15.6813322 C12.2661254,15.8377457 12.2571876,15.8786666 12.2998428,15.931223 L12.2484893,15.8818052 Z"></path>
                    </g>
                    <g id="Rectangle-17">
                        <use fill="#FFFFFF" fill-rule="evenodd" xlink:href="#path-2"></use>
                        <path stroke="#4C5966" stroke-width="1" d="M5.43422985,23.8669262 C5.15808747,23.8669262 4.93422985,24.0907838 4.93422985,24.3669262 L4.93422985,37.0956715 C4.93422985,37.3718139 5.15808747,37.5956715 5.43422985,37.5956715 L7.85974002,37.5956715 C8.08917384,37.5956715 8.2891654,37.4395228 8.34481127,37.2169393 L11.5269976,24.488194 C11.5369127,24.4485337 11.5419264,24.4078071 11.5419264,24.3669262 C11.5419264,24.0907838 11.3180687,23.8669262 11.0419264,23.8669262 L5.43422985,23.8669262 Z"></path>
                    </g>
                    <g id="Rectangle-17">
                        <use fill="#FFFFFF" fill-rule="evenodd" xlink:href="#path-3"></use>
                        <rect stroke="#4C5966" stroke-width="1" x="0.902641499" y="17.7330558" width="5.59744161" height="6.83446191" rx="2"></rect>
                    </g>
                    <g id="Rectangle-17">
                        <use fill="#FFFFFF" fill-rule="evenodd" xlink:href="#path-4"></use>
                        <rect stroke="#4C5966" stroke-width="1" x="5.40005818" y="13.6001912" width="5.59744161" height="6.83446191" rx="2"></rect>
                    </g>
                    <g id="Rectangle-17">
                        <use fill="#FFFFFF" fill-rule="evenodd" xlink:href="#path-5"></use>
                        <rect stroke="#4C5966" stroke-width="1" x="3.30003324" y="15.0002078" width="10.200133" height="12.3001579" rx="2"></rect>
                    </g>
                    <g id="Rectangle-17">
                        <use fill="#FFFFFF" fill-rule="evenodd" xlink:href="#path-6"></use>
                        <rect stroke="#4C5966" stroke-width="1" x="35.539966" y="1.00004156" width="4.56051602" height="39.9874007" rx="2"></rect>
                    </g>
                </g>
                <path d="M29.7406755,60.7211354 C36.9044492,60.7211354 42.720675,61.4150274 42.720675,62.2695878 C42.720675,63.1241481 36.9044492,63.8180401 29.7406755,63.8180401 C22.5769018,63.8180401 16.7606759,63.1241481 16.7606759,62.2695878 C16.7606759,61.4150274 22.5769018,60.7211354 29.7406755,60.7211354 Z" id="Fill-11" fill="#DFDFDF"></path>
            </g>
        </g>
    </g>
</svg>
