
<svg width="47px" height="62px" viewBox="0 0 47 62">
    <g id="Page-1" stroke="none" stroke-width="1" fill="none" fill-rule="evenodd">
        <g id="About" transform="translate(-585.000000, -553.000000)">
            <g id="Group-3" transform="translate(585.000000, 553.000000)">
                <g id="hand" stroke="#4C5966" stroke-linecap="round" stroke-linejoin="round">
                    <path d="M44.4794,33.5481 C47.1863,36.9969 44.5013,42.8056 39.0744,42.8056 C33.6475,42.8056 28.1858,44.0319 28.1858,39.2725 C28.1858,34.5131 32.9088,35.7137 32.9088,35.7137" id="Stroke-3"></path>
                    <path d="M40.8782,42.9474 C43.153,45.5158 39.8966,49.8418 35.3361,49.8418 C30.7756,49.8418 27.1858,49.755 27.1858,46.2106 C27.1858,42.6661 31.1548,42.5602 31.1548,42.5602" id="Stroke-4"></path>
                    <path d="M24.3088,47.8394 C16.0075,47.8394 11.2913,43.0325 11.2913,43.0325 C7.171875,43.0325 4.24462891,43.0325 0.5,44.201 L0.5643,25.1658 C3.61914062,26.0106 7.796875,26.8891602 10.5894,26.0106 C10.5894,26.0106 10.885,22.2937 15.8663,20.4537 C20.8475,18.6137 20.8925,13.5837 21.2369,9.9806 C21.5813,6.3775 20.8494,3.2769 21.7888,2.635 C22.7281,1.9931 28.7981,2.3112 28.7981,11.1075 C28.7981,19.9037 27.5956,22.2325 28.9069,22.2325 C30.2181,22.2325 30.0681,22.2612 38.9081,22.2612 C47.7481,22.2612 48.4631,35.7012 38.705,35.7012 C36.27,35.7012 33.0556,35.7012 33.0556,35.7012 C33.0556,35.7012 29.202,36.7294 29.202,31.85 C29.202,26.9706 33.7944,28.4831 39.1044,28.4831" id="Stroke-5"></path>
                    <path d="M38.3544,0.5 L34.4038,6.6544" id="Stroke-1" stroke-opacity="0.282778533"></path>
                    <path d="M10.6913,0.5 L14.9969,6.6544" id="Stroke-2" stroke-opacity="0.282778533"></path>
                    <path d="M4.2506,11.6206 L10.6913,15.0994" id="Stroke-6" stroke-opacity="0.282778533"></path>
                    <path d="M45.7822,11.6206 L38.3544,15.0994" id="Stroke-7" stroke-opacity="0.282778533"></path>
                </g>
                <path d="M19.7406755,58.7211354 C26.9044492,58.7211354 32.720675,59.4150274 32.720675,60.2695878 C32.720675,61.1241481 26.9044492,61.8180401 19.7406755,61.8180401 C12.5769018,61.8180401 6.76067592,61.1241481 6.76067592,60.2695878 C6.76067592,59.4150274 12.5769018,58.7211354 19.7406755,58.7211354 Z" id="shadow" fill="#DFDFDF"></path>
            </g>
        </g>
    </g>
</svg>
